<svg width="160" height="33" viewBox="0 0 160 33" fill="none" xmlns="http://www.w3.org/2000/svg">
<path d="M6.29123 26.086L21.9806 26.7146C23.534 26.7931 24.7767 25.6146 24.8543 24.0431L25.631 4.47885C25.7087 2.59314 23.9223 1.17885 22.0582 1.72885L20.4272 2.12171C20.1165 2.20028 19.9611 2.43599 19.9611 2.75028C19.9611 3.14314 20.3495 3.45742 20.7378 3.37885L21.5922 3.14314C22.9903 2.67171 24.3883 3.77171 24.3883 5.26456L23.6893 23.4146C23.6116 24.5931 22.6019 25.536 21.4369 25.4574L6.91259 24.9074C5.74754 24.8288 4.81551 23.8074 4.89318 22.6288L4.97085 20.8217C4.97085 20.5074 4.73784 20.2717 4.42716 20.2717H4.27182C3.96114 20.2717 3.72813 20.5074 3.72813 20.8217L3.65046 23.2574C3.57279 24.7503 4.73784 26.0074 6.29123 26.086Z" fill="#BF1B39"/>
<path d="M3.18447 24.9859C3.18447 24.9859 3.26214 24.9859 3.18447 24.9859C3.57282 26.0859 4.58253 26.8716 5.74757 26.9501L22.9903 27.7359C25.5534 27.6573 26.0194 25.2216 26.0971 24.2001V23.8073L26.8738 4.243C26.9515 2.51443 25.7087 1.10014 24.0777 0.864426C24.0777 0.864426 28.6602 0.0787118 28.6602 3.61443L27.6505 28.0501C27.6505 28.2073 27.5728 28.3644 27.4175 28.443C27.2621 28.6001 27.1068 28.6001 26.9515 28.6001L24.466 28.5216C24.1553 28.5216 24 28.8359 24.233 29.0716L25.3204 30.4073H20.7379L18.4078 28.6001C17.8641 28.443 17.4757 28.2859 17.0874 28.2859L4.11651 27.6573C4.11651 27.6573 2.79612 27.6573 3.18447 24.9859Z" fill="#1B2459"/>
<path d="M26.0194 31.1931L11.0291 32.2146C10.4854 32.2146 9.94173 32.136 9.39804 31.9003L7.53396 30.8788C7.14561 30.5646 7.37862 29.8574 7.84464 29.8574L26.0194 30.2503C26.0971 30.2503 26.1747 30.2503 26.2524 30.3288C26.5631 30.5646 26.4854 31.1146 26.0194 31.1931Z" fill="#1B2459"/>
<path d="M14.1359 0.942871H17.4757C18.1748 0.942871 18.7961 1.57144 18.7961 2.27859V5.65716C18.7961 6.3643 18.1748 6.99287 17.4757 6.99287H14.1359C13.4369 6.99287 12.8156 6.3643 12.8156 5.65716V2.20001C12.8156 1.49287 13.4369 0.942871 14.1359 0.942871Z" fill="#BF1B39"/>
<path d="M7.22329 14.3787V17.7573C7.22329 18.4644 6.60193 19.093 5.9029 19.093H2.48543C1.7864 19.093 1.16504 18.4644 1.16504 17.7573V14.3787C1.16504 13.6715 1.7864 13.043 2.48543 13.043H5.82523C6.60193 13.043 7.22329 13.6715 7.22329 14.3787Z" fill="#BF1B39"/>
<path d="M2.48543 0.864258H7.06795C7.76698 0.864258 8.38834 1.49283 8.38834 2.19997V5.9714C8.38834 6.28569 8.54368 6.67854 8.77669 6.91426L12.2718 10.45C12.5048 10.6857 12.8155 10.8428 13.2039 10.8428H16.932C17.6311 10.8428 18.2524 11.4714 18.2524 12.1785V16.8143C18.2524 17.5214 17.6311 18.15 16.932 18.15H12.3495C11.6505 18.15 11.0291 17.5214 11.0291 16.8143V13.0428C11.0291 12.7285 10.8738 12.3357 10.6408 12.1L7.14562 8.56426C6.91261 8.32854 6.60193 8.1714 6.21358 8.1714H2.48543C1.7864 8.1714 1.16504 7.54283 1.16504 6.83569V2.19997C1.16504 1.49283 1.7864 0.864258 2.48543 0.864258Z" fill="#1B2459"/>
<path d="M32.0776 25.2216V4.9502H36.4272V21.4502H46.5242V25.2216H32.0776Z" fill="#1B2459"/>
<path d="M52.5049 25.6144C51.9612 25.6144 51.4952 25.5359 50.8738 25.4573C50.3301 25.3001 49.7864 25.143 49.2427 24.8287C48.699 24.5144 48.3107 24.043 48 23.493C47.6893 22.943 47.534 22.1573 47.534 21.293C47.534 20.193 47.767 19.3287 48.233 18.6216C48.699 17.9144 49.3981 17.3644 50.2524 16.9716C51.1068 16.5787 52.1942 16.2644 53.3592 16.1073C54.602 15.9501 55.9223 15.8716 57.3981 15.8716V14.693C57.3981 14.2216 57.3204 13.8287 57.1651 13.5144C57.0097 13.2001 56.7767 12.8859 56.3884 12.7287C56 12.493 55.534 12.4144 54.9126 12.4144C54.2913 12.4144 53.7476 12.493 53.3592 12.6501C52.9709 12.8073 52.6602 13.043 52.5049 13.2787C52.3495 13.5144 52.2719 13.8287 52.2719 14.0644V14.4573H48.3107C48.3107 14.3787 48.3107 14.3001 48.3107 14.143C48.3107 14.0644 48.3107 13.9073 48.3107 13.8287C48.3107 12.8859 48.6214 12.1001 49.1651 11.4716C49.7088 10.843 50.4855 10.293 51.4952 9.97871C52.5049 9.58585 53.6699 9.42871 54.9903 9.42871C56.3884 9.42871 57.6311 9.58585 58.5631 9.97871C59.4952 10.3716 60.2719 10.9216 60.8156 11.6287C61.3592 12.3359 61.5923 13.2787 61.5923 14.3787V21.4501C61.5923 21.843 61.6699 22.0787 61.9029 22.2359C62.1359 22.393 62.3689 22.4716 62.602 22.4716H63.534V25.143C63.301 25.2216 63.068 25.3787 62.602 25.4573C62.2136 25.5359 61.6699 25.6144 61.1262 25.6144C60.5825 25.6144 60.0389 25.5359 59.6505 25.3787C59.1845 25.2216 58.8738 24.9859 58.5631 24.6716C58.2524 24.3573 58.0971 23.9644 57.9418 23.5716H57.7088C57.3981 23.9644 57.0097 24.3573 56.466 24.6716C56 24.9859 55.4563 25.2216 54.835 25.3787C54.0583 25.4573 53.3592 25.6144 52.5049 25.6144ZM53.9029 22.4716C54.4466 22.4716 54.9126 22.393 55.3787 22.2359C55.8447 22.0787 56.1554 21.843 56.466 21.5287C56.7767 21.2144 57.0097 20.9001 57.1651 20.5073C57.3204 20.1144 57.3981 19.643 57.3981 19.1716V18.3073C56.3107 18.3073 55.301 18.3859 54.4466 18.543C53.5922 18.7001 52.8932 18.9359 52.4272 19.3287C51.9612 19.7216 51.6505 20.193 51.6505 20.8216C51.6505 21.2144 51.7282 21.4501 51.8835 21.7644C52.0389 22.0001 52.3495 22.2359 52.6602 22.393C53.0486 22.393 53.4369 22.4716 53.9029 22.4716Z" fill="#1B2459"/>
<path d="M73.398 25.6144C72.3883 25.6144 71.4563 25.3787 70.6796 24.9858C69.8252 24.593 69.2039 23.9644 68.6602 23.1001H68.4272L68.1165 25.2215H64.7767V3.8501H68.8155V11.393H68.9708C69.2815 10.9215 69.6699 10.5287 70.1359 10.2144C70.6019 9.9001 71.0679 9.66438 71.6893 9.50724C72.233 9.3501 72.8543 9.27153 73.5534 9.27153C74.7961 9.27153 75.8058 9.58581 76.7378 10.1358C77.6699 10.6858 78.3689 11.6287 78.8349 12.8072C79.3786 13.9858 79.6116 15.5572 79.6116 17.443C79.6116 19.3287 79.3786 20.8215 78.8349 22.0787C78.3689 23.2572 77.5922 24.2001 76.7378 24.7501C75.8058 25.3001 74.7184 25.6144 73.398 25.6144ZM72.1553 22.2358C73.0097 22.2358 73.631 22.0787 74.0971 21.7644C74.5631 21.4501 74.9514 20.9787 75.1068 20.2715C75.3398 19.643 75.4174 18.7787 75.4174 17.8358V17.1287C75.4174 16.1072 75.3398 15.3215 75.1068 14.693C74.8738 14.0644 74.5631 13.5144 74.0971 13.2001C73.631 12.8858 73.0097 12.7287 72.1553 12.7287C71.534 12.7287 71.0679 12.8072 70.6796 13.043C70.2912 13.2787 69.9029 13.5144 69.6699 13.9072C69.4369 14.3001 69.2039 14.7715 69.0485 15.3215C68.8932 15.8715 68.8155 16.5001 68.8155 17.2072V17.7572C68.8155 18.7001 68.9708 19.4858 69.2039 20.193C69.4369 20.9001 69.8252 21.3715 70.2912 21.7644C70.7573 22.0001 71.3786 22.2358 72.1553 22.2358Z" fill="#1B2459"/>
<path d="M87.7669 25.6145C86.6796 25.6145 85.7475 25.4573 84.8932 25.2216C84.0388 24.9859 83.4174 24.6716 82.8737 24.2788C82.3301 23.8859 81.9417 23.3359 81.631 22.7859C81.3203 22.2359 81.2427 21.5288 81.2427 20.8216C81.2427 20.743 81.2427 20.6645 81.2427 20.5859C81.2427 20.5073 81.2427 20.4288 81.2427 20.3502H84.2718C84.2718 20.4288 84.2718 20.4288 84.2718 20.5073C84.2718 20.5859 84.2718 20.5859 84.2718 20.6645C84.2718 21.293 84.4271 21.7645 84.7378 22.1573C85.0485 22.5502 85.5145 22.7859 86.0582 22.943C86.6019 23.1002 87.2233 23.1788 87.9223 23.1788C88.5436 23.1788 89.0097 23.1002 89.5534 22.943C90.0194 22.7859 90.4854 22.5502 90.7961 22.3145C91.1068 22.0002 91.2621 21.6073 91.2621 21.2145C91.2621 20.5859 91.0291 20.193 90.6407 19.8788C90.2524 19.5645 89.7087 19.3288 89.0097 19.093C88.3106 18.9359 87.6893 18.7002 86.9126 18.4645C86.2912 18.3073 85.5922 18.0716 84.9708 17.9145C84.3495 17.6788 83.7281 17.443 83.2621 17.1288C82.7184 16.8145 82.3301 16.343 82.0194 15.8716C81.7087 15.3216 81.5534 14.693 81.5534 13.9859C81.5534 13.2788 81.7087 12.6502 82.0194 12.1002C82.3301 11.5502 82.7961 11.0788 83.3398 10.6859C83.8835 10.293 84.5825 10.0573 85.3592 9.82161C86.1359 9.5859 86.9902 9.50732 87.9223 9.50732C88.8543 9.50732 89.7087 9.5859 90.4854 9.82161C91.2621 10.0573 91.8835 10.293 92.3495 10.6859C92.8932 11.0788 93.2815 11.4716 93.5145 12.0216C93.8252 12.5716 93.9029 13.1216 93.9029 13.6716C93.9029 13.8288 93.9029 13.9073 93.9029 14.0645C93.9029 14.2216 93.9029 14.3002 93.9029 14.3002H90.9514V14.0645C90.9514 13.6716 90.8737 13.2788 90.6407 12.9645C90.4077 12.6502 90.097 12.4145 89.631 12.1788C89.165 11.943 88.5436 11.8645 87.7669 11.8645C87.2233 11.8645 86.8349 11.943 86.4466 12.0216C86.0582 12.1002 85.7475 12.2573 85.5145 12.4145C85.2815 12.5716 85.0485 12.7288 84.9708 12.9645C84.8155 13.2002 84.8155 13.4359 84.8155 13.6716C84.8155 14.143 84.9708 14.4573 85.2815 14.693C85.5922 14.9288 86.0582 15.1645 86.5242 15.3216C87.0679 15.4788 87.6116 15.6359 88.233 15.8716C88.932 16.1073 89.631 16.2645 90.3301 16.5002C91.0291 16.7359 91.7281 16.9716 92.3495 17.2859C92.9708 17.6002 93.4369 18.0716 93.8252 18.6216C94.2136 19.1716 94.3689 19.8788 94.3689 20.8216C94.3689 21.6859 94.2136 22.393 93.9029 23.0216C93.5922 23.6502 93.1262 24.1216 92.5048 24.5145C91.8835 24.9073 91.1844 25.2216 90.4077 25.3788C89.5534 25.4573 88.699 25.6145 87.7669 25.6145Z" fill="#BF1B39"/>
<path d="M106.796 30.3286V23.3358H106.563C106.252 23.8858 105.864 24.2786 105.398 24.5929C104.932 24.9072 104.388 25.1429 103.845 25.3001C103.223 25.4572 102.602 25.5358 101.981 25.5358C100.816 25.5358 99.8058 25.2215 98.8738 24.6715C97.9418 24.1215 97.2427 23.1786 96.7767 22.0001C96.233 20.8215 96 19.2501 96 17.4429C96 15.5572 96.233 13.9858 96.7767 12.8072C97.2427 11.6286 97.9418 10.6858 98.8738 10.1358C99.8058 9.58577 100.893 9.27148 102.136 9.27148C103.146 9.27148 104.078 9.5072 104.854 9.90006C105.709 10.2929 106.33 10.9215 106.874 11.7858H107.107L107.417 9.66434H109.903V30.3286H106.796ZM102.99 22.9429C103.612 22.9429 104.155 22.8643 104.621 22.6286C105.087 22.3929 105.476 22.1572 105.786 21.6858C106.097 21.2929 106.408 20.7429 106.563 20.0358C106.718 19.3286 106.796 18.5429 106.796 17.6001V17.2072C106.796 16.1072 106.641 15.1643 106.408 14.3001C106.097 13.5143 105.709 12.8858 105.165 12.4929C104.621 12.1001 103.845 11.8643 102.99 11.8643C102.136 11.8643 101.359 12.0215 100.816 12.4143C100.272 12.8072 99.8835 13.3572 99.5728 14.0643C99.2621 14.8501 99.1845 15.8715 99.1845 17.0501V17.6001C99.1845 18.7786 99.3398 19.7215 99.5728 20.5072C99.8058 21.2929 100.272 21.8429 100.816 22.2358C101.359 22.7072 102.136 22.9429 102.99 22.9429Z" fill="#BF1B39"/>
<path d="M118.058 25.6146C116.583 25.6146 115.34 25.2217 114.485 24.436C113.553 23.6503 113.087 22.236 113.087 20.3503V9.66455H116.117V19.8003C116.117 20.4288 116.194 20.9003 116.35 21.2931C116.505 21.686 116.738 22.0003 116.971 22.236C117.282 22.4717 117.592 22.6288 117.903 22.7074C118.291 22.786 118.68 22.8646 119.146 22.8646C119.845 22.8646 120.466 22.7074 121.087 22.3146C121.631 22.0003 122.097 21.4503 122.485 20.9003C122.874 20.2717 123.029 19.5646 123.029 18.7788V9.66455H126.058V25.2217H123.495L123.262 23.0217H123.029C122.641 23.5717 122.252 24.0431 121.709 24.436C121.165 24.8288 120.621 25.0646 120 25.3003C119.456 25.4574 118.757 25.6146 118.058 25.6146Z" fill="#BF1B39"/>
<path d="M129.32 6.99295V3.8501H132.349V6.99295H129.32ZM129.32 25.2215V9.66438H132.349V25.2215H129.32Z" fill="#BF1B39"/>
<path d="M135.689 25.2215V9.66434H138.175L138.408 12.1786H138.563C138.718 11.7072 138.951 11.2358 139.262 10.7643C139.573 10.2929 139.884 9.97863 140.35 9.66434C140.816 9.35006 141.359 9.27148 142.058 9.27148C142.369 9.27148 142.68 9.27148 142.913 9.35006C143.146 9.42863 143.379 9.42863 143.456 9.5072V12.4143H142.447C141.825 12.4143 141.282 12.4929 140.816 12.7286C140.35 12.9643 139.961 13.2001 139.651 13.5929C139.34 13.9858 139.107 14.4572 138.951 15.0072C138.796 15.5572 138.718 16.1858 138.718 16.8929V25.2215H135.689Z" fill="#BF1B39"/>
<path d="M151.301 25.6144C149.748 25.6144 148.427 25.3001 147.34 24.7501C146.252 24.2001 145.476 23.2572 144.932 22.0787C144.388 20.9001 144.078 19.3287 144.078 17.5215C144.078 15.6358 144.388 14.143 144.932 12.8858C145.476 11.7072 146.252 10.843 147.34 10.2144C148.427 9.66438 149.748 9.3501 151.379 9.3501C152.854 9.3501 154.097 9.66438 155.029 10.2144C156.039 10.7644 156.738 11.6287 157.282 12.8072C157.825 13.9858 158.058 15.4001 158.058 17.1287V18.3072H147.262C147.262 19.4072 147.495 20.3501 147.728 21.0572C148.039 21.7644 148.427 22.3144 149.049 22.7072C149.67 23.0215 150.369 23.2572 151.301 23.2572C151.845 23.2572 152.388 23.1787 152.854 23.0215C153.32 22.8644 153.709 22.6287 154.019 22.393C154.33 22.0787 154.563 21.7644 154.718 21.3715C154.874 20.9787 154.951 20.5072 154.951 19.9572H157.903C157.903 20.9001 157.748 21.6858 157.437 22.393C157.126 23.1001 156.66 23.7287 156.039 24.2001C155.417 24.6715 154.718 25.0644 153.942 25.3001C153.243 25.4572 152.311 25.6144 151.301 25.6144ZM147.34 15.9501H154.874C154.874 15.1644 154.796 14.5358 154.641 13.9858C154.485 13.4358 154.252 13.043 153.942 12.7287C153.631 12.4144 153.243 12.1787 152.854 12.0215C152.388 11.8644 151.922 11.7858 151.379 11.7858C150.524 11.7858 149.825 11.943 149.282 12.2572C148.738 12.5715 148.272 13.043 147.961 13.6715C147.573 14.2215 147.417 15.0072 147.34 15.9501Z" fill="#BF1B39"/>
</svg>
